<svg width="169" height="59" viewBox="0 0 169 59" fill="none" xmlns="http://www.w3.org/2000/svg">
<path fill-rule="evenodd" clip-rule="evenodd" d="M169 28C169 43.464 156.464 56 141 56C125.536 56 113 43.464 113 28C113 12.536 125.536 0 141 0C156.464 0 169 12.536 169 28ZM141 48.3636C152.247 48.3636 161.364 39.2465 161.364 28C161.364 16.7535 152.247 7.63636 141 7.63636C129.753 7.63636 120.636 16.7535 120.636 28C120.636 39.2465 129.753 48.3636 141 48.3636Z" fill="#1A5FFF"/>
<path d="M151.182 28C151.182 33.6233 146.623 38.1818 141 38.1818C135.377 38.1818 130.818 33.6233 130.818 28C130.818 22.3767 135.377 17.8182 141 17.8182C146.623 17.8182 151.182 22.3767 151.182 28Z" fill="#FFB71B"/>
<path d="M1.1792 51.4844L2.5708 50.8252H2.64404V51.4844C2.64404 52.1289 2.81982 52.6587 3.17139 53.0737C3.59619 53.5767 4.16504 53.8281 4.87793 53.8281C5.57617 53.8281 6.14502 53.5767 6.58447 53.0737C6.93115 52.6782 7.10449 52.1729 7.10449 51.5576C7.10449 50.9814 6.96045 50.5249 6.67236 50.188C6.27197 49.729 5.66895 49.4995 4.86328 49.4995C4.19434 49.4995 3.65234 49.6069 3.2373 49.8218L5.66162 45.2734H1.82373V45.2002L2.41699 43.9404H7.93213L5.41992 48.335C6.2793 48.3398 6.99707 48.5962 7.57324 49.104C8.2373 49.6899 8.56934 50.5029 8.56934 51.543C8.56934 52.5391 8.24219 53.3862 7.58789 54.0845C6.91895 54.7925 6.01562 55.1465 4.87793 55.1465C3.74023 55.1465 2.83691 54.7925 2.16797 54.0845C1.50879 53.3862 1.1792 52.5195 1.1792 51.4844ZM18.4131 46.8115L17.0654 47.4561H16.9922C16.9922 46.8066 16.8164 46.2769 16.4648 45.8667C16.0254 45.3638 15.5078 45.1123 14.9121 45.1123C14.2041 45.1123 13.6328 45.3638 13.1982 45.8667C12.8467 46.272 12.6709 46.8018 12.6709 47.4561V48.8184C13.3057 48.2422 14.0503 47.9541 14.9048 47.9541C16.0425 47.9541 16.9458 48.3081 17.6147 49.0161C18.2739 49.7144 18.6035 50.5566 18.6035 51.543C18.6035 52.5391 18.2739 53.3862 17.6147 54.0845C16.9458 54.7925 16.0425 55.1465 14.9048 55.1465C13.7671 55.1465 12.8638 54.7925 12.1948 54.0845C11.5356 53.3862 11.2061 52.5439 11.2061 51.5576V47.4561C11.2061 46.4209 11.5356 45.5542 12.1948 44.856C12.8638 44.1479 13.7671 43.7939 14.9048 43.7939C15.9839 43.7939 16.8384 44.1235 17.4683 44.7827C18.0981 45.437 18.4131 46.1133 18.4131 46.8115ZM14.9048 49.2725C14.2065 49.2725 13.6377 49.5239 13.1982 50.0269C12.8467 50.4321 12.6709 50.9424 12.6709 51.5576C12.6709 52.1582 12.8467 52.6636 13.1982 53.0737C13.6279 53.5767 14.1968 53.8281 14.9048 53.8281C15.5933 53.8281 16.1621 53.5767 16.6113 53.0737C16.9629 52.6782 17.1387 52.1729 17.1387 51.5576C17.1387 50.9473 16.9629 50.437 16.6113 50.0269C16.1816 49.5239 15.6128 49.2725 14.9048 49.2725ZM22.998 51.4844C22.998 52.1387 23.1738 52.6685 23.5254 53.0737C23.96 53.5767 24.5288 53.8281 25.2319 53.8281C25.9351 53.8281 26.5039 53.5767 26.9385 53.0737C27.29 52.6685 27.4658 52.1387 27.4658 51.4844V47.4561C27.4658 46.8018 27.29 46.272 26.9385 45.8667C26.5039 45.3638 25.9351 45.1123 25.2319 45.1123C24.5288 45.1123 23.96 45.3638 23.5254 45.8667C23.1738 46.272 22.998 46.8018 22.998 47.4561V51.4844ZM21.5332 51.4844V47.4561C21.5332 46.3965 21.8628 45.5298 22.522 44.856C23.2153 44.1479 24.1187 43.7939 25.2319 43.7939C26.3452 43.7939 27.2485 44.1479 27.9419 44.856C28.6011 45.5249 28.9307 46.3916 28.9307 47.4561V51.4844C28.9307 52.5439 28.6011 53.4106 27.9419 54.0845C27.2485 54.7925 26.3452 55.1465 25.2319 55.1465C24.1187 55.1465 23.2153 54.7925 22.522 54.0845C21.8628 53.4106 21.5332 52.5439 21.5332 51.4844Z" fill="#1E1E1E"/>
<path d="M26.2 10.8C26.7333 10.8 27.1867 11 27.56 11.4C27.96 11.7733 28.16 12.2267 28.16 12.76C28.16 13.32 27.96 13.8 27.56 14.2C27.1867 14.5733 26.7333 14.76 26.2 14.76C25.6667 14.76 25.2 14.5733 24.8 14.2C24.4267 13.8 24.24 13.32 24.24 12.76C24.24 12.2267 24.4267 11.7733 24.8 11.4C25.2 11 25.6667 10.8 26.2 10.8ZM31.04 10.8C31.6 10.8 32.0667 11 32.44 11.4C32.84 11.7733 33.04 12.2267 33.04 12.76C33.04 13.32 32.84 13.8 32.44 14.2C32.0667 14.5733 31.6 14.76 31.04 14.76C30.5067 14.76 30.04 14.5733 29.64 14.2C29.2667 13.8 29.08 13.32 29.08 12.76C29.08 12.2267 29.2667 11.7733 29.64 11.4C30.04 11 30.5067 10.8 31.04 10.8ZM33.04 18.52V31.12C33.04 33.28 32.4267 34.9867 31.2 36.24C29.84 37.6533 27.7867 38.36 25.04 38.36C22.64 38.36 20.6933 37.7467 19.2 36.52C17.2 34.8667 16.2 32.3733 16.2 29.04C16.2 26.0267 17.12 23.5467 18.96 21.6C20.6667 19.8133 22.8 18.92 25.36 18.92C26.7733 18.92 28.2 19.24 29.64 19.88L31.36 18.52H33.04ZM29.64 22.68C28.4667 22.0933 27.28 21.8 26.08 21.8C23.9733 21.8 22.32 22.6267 21.12 24.28C20.1067 25.6133 19.6 27.2133 19.6 29.08C19.6 31.1333 20.08 32.72 21.04 33.84C22 34.96 23.3333 35.52 25.04 35.52C26.64 35.52 27.8133 35.1067 28.56 34.28C29.28 33.48 29.64 32.4133 29.64 31.08V22.68ZM46.6941 19.6V37.64C46.6941 40.6 45.8541 42.9333 44.1741 44.64C42.8674 45.9733 41.1074 46.8533 38.8941 47.28C38.0407 47.44 37.1074 47.52 36.0941 47.52C35.4541 47.52 34.8407 47.5067 34.2541 47.48L32.9341 45.84V44.56C33.7074 44.6667 34.5474 44.72 35.4541 44.72C40.6807 44.72 43.2941 42.32 43.2941 37.52V19.6H46.6941ZM55.6678 9.36V33.64C55.6678 34.0667 55.8011 34.4267 56.0678 34.72C56.3611 35.0133 56.7345 35.16 57.1878 35.16H57.7078V38H55.8678C55.0145 38 54.2678 37.72 53.6278 37.16C52.7211 36.3867 52.2678 35.4 52.2678 34.2V9.36H55.6678ZM66.3138 10.8C66.8738 10.8 67.3404 11 67.7138 11.4C68.1138 11.7733 68.3138 12.2267 68.3138 12.76C68.3138 13.32 68.1138 13.8 67.7138 14.2C67.3404 14.5733 66.8738 14.76 66.3138 14.76C65.7804 14.76 65.3138 14.5733 64.9138 14.2C64.5404 13.8 64.3538 13.32 64.3538 12.76C64.3538 12.2267 64.5404 11.7733 64.9138 11.4C65.3138 11 65.7804 10.8 66.3138 10.8ZM68.0338 19.6V34.2C68.0338 34.52 67.9938 34.84 67.9138 35.16H70.0338V38H68.4738L67.3138 36.6H67.1938C66.4738 37.5333 65.5404 38 64.3938 38H57.4337V35.16H63.1138C63.5404 35.16 63.8871 35.0267 64.1538 34.76C64.4738 34.4667 64.6338 34.0933 64.6338 33.64V19.6H68.0338ZM76.9384 26.4C76.9384 23.68 77.8984 21.68 79.8184 20.4C81.0718 19.5733 82.7384 19.16 84.8184 19.16C87.3518 19.16 89.4718 20.0267 91.1784 21.76C92.8851 23.4933 93.7384 25.92 93.7384 29.04C93.7384 31.9467 92.8851 34.4 91.1784 36.4C89.5784 38.2667 87.5518 39.2 85.0984 39.2C82.8051 39.2 80.9384 38.3333 79.4984 36.6C78.7784 37.5333 77.8184 38 76.6184 38H69.7384V35.16H75.4184C75.8451 35.16 76.2051 35.0133 76.4984 34.72C76.7918 34.4267 76.9384 34.0667 76.9384 33.64V26.4ZM80.3384 34.24C81.7251 35.6533 83.2584 36.36 84.9384 36.36C86.5384 36.36 87.8318 35.7067 88.8184 34.4C89.8318 33.0667 90.3384 31.3467 90.3384 29.24C90.3384 26.8933 89.7518 25.04 88.5784 23.68C87.5918 22.56 86.2851 22 84.6584 22C83.4318 22 82.4318 22.36 81.6584 23.08C80.7784 23.9067 80.3384 25.0133 80.3384 26.4V34.24Z" fill="#1E1E1E"/>
</svg>
