<svg width="56" height="56" viewBox="0 0 56 56" fill="none" xmlns="http://www.w3.org/2000/svg">
<path fill-rule="evenodd" clip-rule="evenodd" d="M56 28C56 43.464 43.464 56 28 56C12.536 56 0 43.464 0 28C0 12.536 12.536 0 28 0C43.464 0 56 12.536 56 28ZM28 48.3636C39.2465 48.3636 48.3636 39.2465 48.3636 28C48.3636 16.7535 39.2465 7.63636 28 7.63636C16.7535 7.63636 7.63636 16.7535 7.63636 28C7.63636 39.2465 16.7535 48.3636 28 48.3636Z" fill="#1A5FFF"/>
<path d="M38.1818 28C38.1818 33.6233 33.6233 38.1818 28 38.1818C22.3767 38.1818 17.8182 33.6233 17.8182 28C17.8182 22.3767 22.3767 17.8182 28 17.8182C33.6233 17.8182 38.1818 22.3767 38.1818 28Z" fill="#FFB71B"/>
</svg>
