<svg width="92" height="92" viewBox="0 0 92 92" fill="none" xmlns="http://www.w3.org/2000/svg">
<path d="M32.5089 54.4586C30.8466 55.3669 28.9852 55.8465 27.0845 55.8466C25.1836 55.8466 23.322 55.3669 21.6596 54.4586L27.0841 39.993L32.5089 54.4586Z" fill="url(#paint0_linear_519_8)"/>
<path d="M70.34 54.4586C68.6776 55.3668 66.8163 55.8466 64.9155 55.8466C63.0146 55.8465 61.1531 55.367 59.4907 54.4586L64.9155 39.993L70.34 54.4586Z" fill="url(#paint1_linear_519_8)"/>
<path fill-rule="evenodd" clip-rule="evenodd" d="M80.861 0C87.0129 0 92 4.98711 92 11.139V80.861C92 87.0129 87.0129 92 80.861 92H11.139C4.98711 92 2.49197e-08 87.0129 0 80.861V11.139C0 4.98711 4.98711 2.49181e-08 11.139 0H80.861ZM46 18.0151C44.7848 18.0151 43.7998 19.0001 43.7998 20.2152V24.2369C38.6002 26.6534 31.6258 28.8241 27.0845 28.8241H21.6797C20.4646 28.8242 19.4796 29.8092 19.4796 31.0243C19.4796 32.2395 20.4646 33.2248 21.6797 33.2249H24.9226L16.9172 54.5718C16.5736 55.4881 16.8766 56.5214 17.6605 57.1072C20.3895 59.1461 23.6885 60.2469 27.0845 60.2469C30.4804 60.2468 33.7791 59.146 36.508 57.1072C37.292 56.5214 37.5949 55.4881 37.2513 54.5718L29.2049 33.1157C33.7513 32.6774 39.2682 30.9688 43.7998 29.0497V66.6552H32.4888C31.2736 66.6552 30.2886 67.6406 30.2886 68.8558C30.2887 70.0709 31.2737 71.0559 32.4888 71.0559H59.5112C60.7263 71.0559 61.7113 70.0709 61.7114 68.8558C61.7114 67.6406 60.7264 66.6552 59.5112 66.6552H48.2002V29.0497C52.7317 30.9688 58.2484 32.6773 62.7947 33.1157L54.7487 54.5718C54.4051 55.4881 54.708 56.5214 55.492 57.1072C58.2209 59.146 61.5196 60.2468 64.9155 60.2469C68.3115 60.2469 71.6105 59.1461 74.3395 57.1072C75.1234 56.5214 75.4264 55.4881 75.0828 54.5718L67.0774 33.2249H70.3203C71.5354 33.2248 72.5204 32.2395 72.5204 31.0243C72.5204 29.8092 71.5354 28.8242 70.3203 28.8241H64.9155C60.3742 28.8241 53.3998 26.6534 48.2002 24.2369V20.2152C48.2002 19.0001 47.2152 18.0151 46 18.0151Z" fill="url(#paint2_linear_519_8)"/>
<defs>
<linearGradient id="paint0_linear_519_8" x1="46" y1="0" x2="46" y2="92" gradientUnits="userSpaceOnUse">
<stop/>
<stop offset="0.600962" stop-color="#1D2A3A"/>
</linearGradient>
<linearGradient id="paint1_linear_519_8" x1="46" y1="0" x2="46" y2="92" gradientUnits="userSpaceOnUse">
<stop/>
<stop offset="0.600962" stop-color="#1D2A3A"/>
</linearGradient>
<linearGradient id="paint2_linear_519_8" x1="46" y1="0" x2="46" y2="92" gradientUnits="userSpaceOnUse">
<stop/>
<stop offset="0.600962" stop-color="#1D2A3A"/>
</linearGradient>
</defs>
</svg>
