<svg width="869" height="223" viewBox="0 0 869 223" fill="none" xmlns="http://www.w3.org/2000/svg">
<path d="M724.799 132.003C720.769 134.205 716.258 135.367 711.65 135.367C707.043 135.367 702.531 134.205 698.501 132.003L711.649 96.9395L724.799 132.003Z" fill="black"/>
<path d="M816.498 132.003C812.469 134.204 807.957 135.367 803.35 135.367C798.742 135.367 794.23 134.205 790.2 132.003L803.35 96.9395L816.498 132.003Z" fill="black"/>
<path fill-rule="evenodd" clip-rule="evenodd" d="M842 0C856.912 0 869 12.0883 869 27V196C869 210.912 856.912 223 842 223H673C658.088 223 646 210.912 646 196V27C646 12.0883 658.088 6.03994e-08 673 0H842ZM757.5 43.667C754.554 43.667 752.167 46.0545 752.167 49V58.748C739.563 64.6055 722.658 69.8671 711.65 69.8672H698.55C695.604 69.8673 693.217 72.2548 693.217 75.2002C693.217 78.1456 695.604 80.534 698.55 80.5342H706.41L687.006 132.277C686.173 134.498 686.907 137.003 688.808 138.423C695.422 143.365 703.419 146.033 711.65 146.033C719.882 146.033 727.878 143.365 734.492 138.423C736.392 137.003 737.127 134.498 736.294 132.277L716.79 80.2695C727.81 79.2071 741.183 75.0658 752.167 70.4141V161.566H724.75C721.805 161.566 719.417 163.955 719.417 166.9C719.417 169.846 721.805 172.233 724.75 172.233H790.25C793.195 172.233 795.583 169.846 795.583 166.9C795.583 163.955 793.196 161.566 790.25 161.566H762.833V70.4141C773.817 75.0657 787.189 79.207 798.209 80.2695L778.706 132.277C777.873 134.498 778.608 137.003 780.508 138.423C787.122 143.365 795.118 146.033 803.35 146.033C811.581 146.033 819.578 143.365 826.192 138.423C828.093 137.003 828.827 134.498 827.994 132.277L808.59 80.5342H816.45C819.396 80.534 821.783 78.1456 821.783 75.2002C821.783 72.2548 819.396 69.8673 816.45 69.8672H803.35C792.342 69.8671 775.437 64.6055 762.833 58.748V49C762.833 46.0545 760.446 43.667 757.5 43.667Z" fill="black"/>
<path d="M4.6 217C1.53333 217 0 215.467 0 212.4V162.2C0 152.6 1.86667 145.467 5.6 140.8C9.46667 136 14.2 133.333 19.8 132.8C21.8 121.867 25 113.067 29.4 106.4C33.8 99.7333 38.8667 94.9333 44.6 92C50.3333 88.9333 56 87.4 61.6 87.4C70.2667 87.5333 77.1333 90.3333 82.2 95.8C87.4 101.133 91.5333 108.467 94.6 117.8C96.3333 122.867 98.2 126.867 100.2 129.8C102.2 132.733 104.8 134.867 108 136.2C111.333 137.4 115.667 138 121 138C123 138 124 139 124 141V151.2C124 155.2 122 157.2 118 157.2C110.933 157.2 105.133 155.867 100.6 153.2C96.0667 150.533 91.8667 145.933 88 139.4C85.8667 143.933 82.9333 147.667 79.2 150.6C75.4667 153.4 70.6667 155.2 64.8 156C58.9333 156.8 51.9333 156.333 43.8 154.6L29.2 151.4C24.4 150.333 21.0667 150.867 19.2 153C17.4667 155 16.6 158.533 16.6 163.6V212.4C16.6 215.467 15.0667 217 12 217H4.6ZM59 139.4C65.4 139.267 70.1333 137.733 73.2 134.8C76.2667 131.867 77.8 128.267 77.8 124C77.8 118 76.0667 113.267 72.6 109.8C69.1333 106.2 64.8667 104.4 59.8 104.4C54.4667 104.4 49.4 106.867 44.6 111.8C39.8 116.733 36.4667 124.467 34.6 135C40.0667 136.467 44.6667 137.6 48.4 138.4C52.1333 139.067 55.6667 139.4 59 139.4Z" fill="black"/>
<path d="M119.645 157.2C117.912 157.2 116.712 156.933 116.045 156.4C115.379 155.733 115.045 154.8 115.045 153.6V142.4C115.045 140.533 115.579 139.333 116.645 138.8C117.712 138.267 119.179 138 121.045 138H176.245C178.245 138 179.245 139 179.245 141V152.8C179.245 154.667 178.712 155.867 177.645 156.4C176.579 156.933 175.112 157.2 173.245 157.2H119.645Z" fill="black"/>
<path d="M174.919 157.2C173.185 157.2 171.985 156.933 171.319 156.4C170.652 155.733 170.319 154.8 170.319 153.6V142.4C170.319 140.533 170.852 139.333 171.919 138.8C172.985 138.267 174.452 138 176.319 138H231.519C233.519 138 234.519 139 234.519 141V152.8C234.519 154.667 233.985 155.867 232.919 156.4C231.852 156.933 230.385 157.2 228.519 157.2H174.919Z" fill="black"/>
<path d="M228.592 157.2C226.592 157.2 225.592 156.133 225.592 154V144C225.592 140 227.592 138 231.592 138C239.859 138 245.592 136.4 248.792 133.2C252.126 130 253.792 124.2 253.792 115.8V96C253.792 93.0667 255.259 91.6 258.192 91.6H266.192C269.126 91.6 270.592 93.0667 270.592 96V115.8C270.592 121.533 271.392 126.067 272.992 129.4C274.726 132.6 277.459 134.867 281.192 136.2C285.059 137.4 290.259 138 296.792 138C298.792 138 299.792 139 299.792 141V151.2C299.792 155.2 297.792 157.2 293.792 157.2C286.459 157.2 279.792 156 273.792 153.6C267.792 151.067 263.126 146.4 259.792 139.6C256.859 146.267 252.526 150.867 246.792 153.4C241.192 155.933 235.126 157.2 228.592 157.2ZM250.592 193.6C249.926 194.133 249.126 194.333 248.192 194.2C247.259 194.2 246.459 193.933 245.792 193.4L238.392 186C237.726 185.333 237.392 184.533 237.392 183.6C237.392 182.667 237.726 181.867 238.392 181.2L245.792 173.8C246.459 173.133 247.192 172.8 247.992 172.8C248.926 172.8 249.792 173.133 250.592 173.8L257.792 181.2C258.592 181.867 258.992 182.667 258.992 183.6C259.126 184.533 258.792 185.4 257.992 186.2L250.592 193.6ZM277.992 193.6C277.459 194.133 276.726 194.333 275.792 194.2C274.859 194.2 274.059 193.933 273.392 193.4L265.792 186C265.126 185.333 264.792 184.533 264.792 183.6C264.792 182.667 265.126 181.867 265.792 181.2L273.392 173.8C274.059 173.133 274.792 172.8 275.592 172.8C276.526 172.8 277.259 173.133 277.792 173.8L285.192 181.2C285.992 181.867 286.392 182.667 286.392 183.6C286.526 184.533 286.192 185.4 285.392 186.2L277.992 193.6Z" fill="black"/>
<path d="M295.427 157.2C293.693 157.2 292.493 156.933 291.827 156.4C291.16 155.733 290.827 154.8 290.827 153.6V142.4C290.827 140.533 291.36 139.333 292.427 138.8C293.493 138.267 294.96 138 296.827 138H352.027C354.027 138 355.027 139 355.027 141V152.8C355.027 154.667 354.493 155.867 353.427 156.4C352.36 156.933 350.893 157.2 349.027 157.2H295.427Z" fill="black"/>
<path d="M350.7 157.2C348.967 157.2 347.767 156.933 347.1 156.4C346.433 155.733 346.1 154.8 346.1 153.6V142.4C346.1 140.533 346.633 139.333 347.7 138.8C348.767 138.267 350.233 138 352.1 138H407.3C409.3 138 410.3 139 410.3 141V152.8C410.3 154.667 409.767 155.867 408.7 156.4C407.633 156.933 406.167 157.2 404.3 157.2H350.7Z" fill="black"/>
<path d="M406.173 157.2C404.307 157.2 403.04 156.867 402.373 156.2C401.707 155.4 401.44 154.533 401.573 153.6C401.573 152.667 401.573 151.867 401.573 151.2V143C401.573 140.867 401.84 139.533 402.373 139C402.907 138.333 404.173 138 406.173 138H450.773C458.24 138 464.04 136.8 468.173 134.4C472.44 132 475.307 127.933 476.773 122.2C478.373 116.333 478.84 108.333 478.173 98.2L481.973 102.4C478.907 106.667 474.707 109.8 469.373 111.8C464.173 113.8 458.907 114.8 453.573 114.8C447.04 114.8 441.307 113.533 436.373 111C431.573 108.333 427.907 104.667 425.373 100C422.84 95.2 421.573 89.6667 421.573 83.4C421.707 76.7333 423.373 70.8 426.573 65.6C429.773 60.4 433.973 56.3333 439.173 53.4C444.373 50.4667 449.907 49 455.773 49C463.907 49 470.707 51.1333 476.173 55.4C481.773 59.5333 486.04 65.3333 488.973 72.8C491.907 80.2667 493.373 88.8667 493.373 98.6C493.373 107.267 492.707 115.2 491.373 122.4C490.173 129.6 487.907 135.8 484.573 141C481.24 146.2 476.507 150.2 470.373 153C464.373 155.8 456.64 157.2 447.173 157.2H406.173ZM454.173 97.8C458.173 97.8 462.307 97.1333 466.573 95.8C470.973 94.3333 474.773 92.2667 477.973 89.6C477.573 86 476.44 82.3333 474.573 78.6C472.707 74.8667 470.04 71.7333 466.573 69.2C463.24 66.6667 459.04 65.4 453.973 65.4C450.107 65.4 446.773 66.2667 443.973 68C441.307 69.7333 439.24 71.9333 437.773 74.6C436.44 77.2667 435.773 79.8 435.773 82.2C435.773 87.4 437.573 91.3333 441.173 94C444.907 96.5333 449.24 97.8 454.173 97.8ZM443.373 27.2C442.707 27.8667 441.907 28.2 440.973 28.2C440.04 28.2 439.173 27.8 438.373 27L431.173 19.6C430.507 18.8 430.173 18 430.173 17.2C430.173 16.2667 430.507 15.4 431.173 14.6L438.373 7.2C439.173 6.4 440.04 6 440.973 6C441.907 6 442.707 6.4 443.373 7.2L450.773 14.6C451.573 15.2667 451.973 16.1333 451.973 17.2C452.107 18.1333 451.773 19 450.973 19.8L443.373 27.2ZM473.173 27.2C472.507 28 471.707 28.3333 470.773 28.2C469.84 28.0667 468.973 27.6667 468.173 27L460.573 19.6C459.907 18.9333 459.573 18.1333 459.573 17.2C459.573 16.1333 459.907 15.2667 460.573 14.6L468.173 7.2C468.973 6.4 469.773 6 470.573 6C471.373 6 472.173 6.4 472.973 7.2L480.373 14.6C481.173 15.2667 481.573 16.1333 481.573 17.2C481.573 18.1333 481.173 19 480.373 19.8L473.173 27.2Z" fill="black"/>
<path d="M494.119 206.2C492.519 206.2 491.385 205.733 490.719 204.8C489.919 204 489.519 202.8 489.519 201.2V192.6C489.519 191 489.985 189.8 490.919 189C491.719 188.333 492.919 188 494.519 188H502.319C511.385 188 518.652 186.067 524.119 182.2C529.585 178.333 533.519 173 535.919 166.2C538.319 159.4 539.519 151.467 539.519 142.4C539.519 135.6 538.852 129.333 537.519 123.6C536.185 117.733 534.519 111.467 532.519 104.8C531.985 102.4 531.852 100.6 532.119 99.4C532.519 98.0667 533.719 97.1333 535.719 96.6L543.319 94.6C544.785 94.2 545.985 94.3333 546.919 95C547.985 95.6667 548.852 97.4667 549.519 100.4C551.385 107.6 552.985 115.2 554.319 123.2C555.785 131.067 556.519 138.333 556.519 145C556.519 156.333 554.652 166.6 550.919 175.8C547.319 185.133 541.652 192.533 533.919 198C526.319 203.467 516.519 206.2 504.519 206.2H494.119Z" fill="black"/>
</svg>
