<svg width="223" height="223" viewBox="0 0 223 223" fill="none" xmlns="http://www.w3.org/2000/svg">
<path d="M78.7988 132.003C74.7694 134.205 70.2577 135.367 65.6504 135.367C61.0429 135.367 56.5306 134.205 52.501 132.003L65.6494 96.9395L78.7988 132.003Z" fill="url(#paint0_linear_519_8)"/>
<path d="M170.498 132.003C166.469 134.204 161.957 135.367 157.35 135.367C152.742 135.367 148.23 134.205 144.2 132.003L157.35 96.9395L170.498 132.003Z" fill="url(#paint1_linear_519_8)"/>
<path fill-rule="evenodd" clip-rule="evenodd" d="M196 0C210.912 0 223 12.0883 223 27V196C223 210.912 210.912 223 196 223H27C12.0883 223 6.04031e-08 210.912 0 196V27C0 12.0883 12.0883 6.03994e-08 27 0H196ZM111.5 43.667C108.554 43.667 106.167 46.0545 106.167 49V58.748C93.5635 64.6055 76.6583 69.8671 65.6504 69.8672H52.5498C49.6045 69.8673 47.2169 72.2548 47.2168 75.2002C47.2168 78.1456 49.6044 80.534 52.5498 80.5342H60.4102L41.0059 132.277C40.173 134.498 40.9074 137.003 42.8076 138.423C49.4223 143.365 57.4189 146.033 65.6504 146.033C73.8817 146.033 81.8776 143.365 88.4922 138.423C90.3925 137.003 91.1269 134.498 90.2939 132.277L70.79 80.2695C81.8102 79.2071 95.1826 75.0658 106.167 70.4141V161.566H78.75C75.8045 161.566 73.417 163.955 73.417 166.9C73.4173 169.846 75.8047 172.233 78.75 172.233H144.25C147.195 172.233 149.583 169.846 149.583 166.9C149.583 163.955 147.196 161.566 144.25 161.566H116.833V70.4141C127.817 75.0657 141.189 79.207 152.209 80.2695L132.706 132.277C131.873 134.498 132.608 137.003 134.508 138.423C141.122 143.365 149.118 146.033 157.35 146.033C165.581 146.033 173.578 143.365 180.192 138.423C182.093 137.003 182.827 134.498 181.994 132.277L162.59 80.5342H170.45C173.396 80.534 175.783 78.1456 175.783 75.2002C175.783 72.2548 173.396 69.8673 170.45 69.8672H157.35C146.342 69.8671 129.437 64.6055 116.833 58.748V49C116.833 46.0545 114.446 43.667 111.5 43.667Z" fill="url(#paint2_linear_519_8)"/>
<defs>
<linearGradient id="paint0_linear_519_8" x1="111.5" y1="0" x2="111.5" y2="223" gradientUnits="userSpaceOnUse">
<stop/>
<stop offset="0.600962" stop-color="#1D2A3A"/>
</linearGradient>
<linearGradient id="paint1_linear_519_8" x1="111.5" y1="0" x2="111.5" y2="223" gradientUnits="userSpaceOnUse">
<stop/>
<stop offset="0.600962" stop-color="#1D2A3A"/>
</linearGradient>
<linearGradient id="paint2_linear_519_8" x1="111.5" y1="0" x2="111.5" y2="223" gradientUnits="userSpaceOnUse">
<stop/>
<stop offset="0.600962" stop-color="#1D2A3A"/>
</linearGradient>
</defs>
</svg>
