<svg width="667" height="223" viewBox="0 0 667 223" fill="none" xmlns="http://www.w3.org/2000/svg">
<path d="M346.686 186.816L346.686 168.762H387.761C392.402 168.762 395.943 167.087 398.385 163.737C400.95 160.511 402.232 156.106 402.232 150.523V123.908C402.232 120.682 403.248 117.601 404.713 116.36C406.301 114.995 407.959 114.043 410.645 113.795C413.332 113.547 416.581 113.795 420 113.795V150.523C420 156.851 418.779 162.745 416.336 168.204C413.894 173.788 410.292 178.254 405.529 181.605C400.889 185.079 394.966 187 387.761 187L346.686 186.816Z" fill="#1D2A3A"/>
<path d="M102.888 146.615V128.535H109.97V146.615H102.888ZM17.8935 146.615V128.535H41.3787C40.8817 129.032 40.4468 129.467 40.074 129.84C39.8254 130.088 39.5148 130.399 39.142 130.772V102.998C39.142 99.0215 39.8254 95.3557 41.1923 92.0005C42.6834 88.5211 44.6716 85.6008 47.1568 83.2397C51.1331 79.3875 55.7308 76.9643 60.9497 75.9702C66.1686 74.8518 71.4497 75.0382 76.7929 76.5294C82.1361 78.0206 86.7959 80.8787 90.7722 85.1037C95.9911 90.6957 99.9675 96.1634 102.701 101.507C105.435 106.726 106.802 111.945 106.802 117.164C106.802 122.384 105.621 126.857 103.26 130.585C101.024 134.313 98.0414 137.358 94.3136 139.719C90.5858 142.08 86.4852 143.82 82.0118 144.938C77.5385 146.056 73.1894 146.615 68.9645 146.615H54.9852V128.535H68.9645C73.6864 128.535 77.4763 127.976 80.3343 126.857C83.1923 125.739 85.3047 124.31 86.6716 122.57C88.1627 120.83 88.9083 119.028 88.9083 117.164C88.9083 115.425 88.1006 112.877 86.4852 109.522C84.9941 106.167 82.074 102.128 77.7249 97.4061C75.9852 95.5421 73.9971 94.3616 71.7604 93.8645C69.5237 93.2432 67.3491 93.1189 65.2367 93.4917C63.1243 93.8645 61.4468 94.6722 60.2041 95.9149C59.2101 96.6605 58.4024 97.6546 57.7811 98.8973C57.284 100.14 57.0355 101.693 57.0355 103.557V126.857C57.0355 130.337 56.2899 133.568 54.7988 136.55C53.3077 139.532 51.1331 141.955 48.2752 143.819C45.4172 145.683 41.8757 146.615 37.6509 146.615H17.8935ZM14.9112 146.615L0 128.535H17.8935L32.6183 146.615H14.9112Z" fill="#1D2A3A"/>
<path d="M106.815 146.615V128.535H158.072V146.615H106.815Z" fill="#1D2A3A"/>
<path d="M176.877 183.274C174.268 183.274 172.093 182.342 170.354 180.478C168.49 178.738 167.558 176.564 167.558 173.954C167.558 171.344 168.49 169.17 170.354 167.43C172.093 165.566 174.268 164.634 176.877 164.634C179.487 164.634 181.723 165.566 183.587 167.43C185.327 169.17 186.197 171.344 186.197 173.954C186.197 176.564 185.327 178.738 183.587 180.478C181.723 182.342 179.487 183.274 176.877 183.274ZM209.309 183.274C206.7 183.274 204.463 182.342 202.599 180.478C200.86 178.738 199.99 176.564 199.99 173.954C199.99 171.344 200.86 169.17 202.599 167.43C204.463 165.566 206.7 164.634 209.309 164.634C211.919 164.634 214.093 165.566 215.833 167.43C217.697 169.17 218.629 171.344 218.629 173.954C218.629 176.564 217.697 178.738 215.833 180.478C214.093 182.342 211.919 183.274 209.309 183.274Z" fill="#1D2A3A"/>
<path d="M154.869 146.615V128.535H211.718C211.469 129.032 211.159 129.467 210.786 129.84C210.413 130.212 210.04 130.585 209.668 130.958V77.275H227.747V127.976C227.747 131.455 226.815 134.624 224.952 137.482C223.212 140.34 220.913 142.577 218.055 144.192C215.197 145.808 212.091 146.615 208.736 146.615H154.869Z" fill="#1D2A3A"/>
<path d="M227.678 146.615V128.535H278.935V146.615H227.678Z" fill="#1D2A3A"/>
<path d="M309.025 36.6399C306.416 36.6399 304.241 35.7079 302.502 33.8439C300.638 32.1042 299.706 29.9296 299.706 27.32C299.706 24.7104 300.638 22.5357 302.502 20.796C304.241 18.932 306.416 18 309.025 18C311.635 18 313.871 18.932 315.735 20.796C317.475 22.5357 318.345 24.7104 318.345 27.32C318.345 29.9296 317.475 32.1042 315.735 33.8439C313.871 35.7079 311.635 36.6399 309.025 36.6399ZM341.457 36.6399C338.848 36.6399 336.611 35.7079 334.747 33.8439C333.008 32.1042 332.138 29.9296 332.138 27.32C332.138 24.7104 333.008 22.5357 334.747 20.796C336.611 18.932 338.848 18 341.457 18C344.067 18 346.241 18.932 347.981 20.796C349.845 22.5357 350.777 24.7104 350.777 27.32C350.777 29.9296 349.845 32.1042 347.981 33.8439C346.241 35.7079 344.067 36.6399 341.457 36.6399Z" fill="#1D2A3A"/>
<path d="M275.731 146.615V128.535H344.696C344.323 129.032 343.95 129.467 343.577 129.84C343.329 130.088 342.956 130.399 342.459 130.772V83.9853C342.459 80.8787 341.714 78.2691 340.222 76.1566C338.856 74.044 337.054 72.4907 334.817 71.4966C333.326 70.2539 331.462 69.4462 329.225 69.0734C326.989 68.5763 324.752 68.5142 322.515 68.887C320.279 69.2598 318.166 70.1297 316.178 71.4966C314.314 72.7392 312.699 74.6032 311.332 77.0886C310.089 79.5739 309.406 82.2456 309.282 85.1037C309.157 87.8376 309.841 90.385 311.332 92.7461C313.196 95.7285 315.432 97.9653 318.042 99.4565C320.651 100.948 324.441 101.818 329.412 102.066C334.506 102.19 341.341 102.004 349.915 101.507V115.487C345.193 115.735 340.222 116.046 335.004 116.419C329.909 116.792 324.876 116.792 319.906 116.419C315.06 115.922 310.524 114.617 306.299 112.504C302.199 110.268 298.657 106.726 295.675 101.88C293.066 97.6546 291.575 93.3053 291.202 88.8317C290.953 84.2339 291.45 79.8846 292.693 75.7838C294.06 71.5587 295.986 67.7686 298.471 64.4134C300.956 60.934 303.752 58.138 306.859 56.0254C310.338 53.9129 314.314 52.4217 318.788 51.5519C323.261 50.5577 327.796 50.3713 332.394 50.9927C336.992 51.614 341.341 53.1052 345.441 55.4662C349.542 57.8273 352.959 61.1825 355.693 65.5318C357.184 68.0171 358.364 70.8131 359.234 73.9198C360.228 77.0264 360.725 80.2573 360.725 83.6125V127.416C360.725 130.772 359.856 133.94 358.116 136.923C356.501 139.781 354.202 142.142 351.219 144.006C348.361 145.746 345.069 146.615 341.341 146.615H275.731Z" fill="#1D2A3A"/>
<path d="M522.799 132.003C518.769 134.205 514.258 135.367 509.65 135.367C505.043 135.367 500.531 134.205 496.501 132.003L509.649 96.9395L522.799 132.003Z" fill="url(#paint0_linear_519_5)"/>
<path d="M614.498 132.003C610.469 134.204 605.957 135.367 601.35 135.367C596.742 135.367 592.23 134.205 588.2 132.003L601.35 96.9395L614.498 132.003Z" fill="url(#paint1_linear_519_5)"/>
<path fill-rule="evenodd" clip-rule="evenodd" d="M640 0C654.912 0 667 12.0883 667 27V196C667 210.912 654.912 223 640 223H471C456.088 223 444 210.912 444 196V27C444 12.0883 456.088 6.03994e-08 471 0H640ZM555.5 43.667C552.554 43.667 550.167 46.0545 550.167 49V58.748C537.563 64.6055 520.658 69.8671 509.65 69.8672H496.55C493.604 69.8673 491.217 72.2548 491.217 75.2002C491.217 78.1456 493.604 80.534 496.55 80.5342H504.41L485.006 132.277C484.173 134.498 484.907 137.003 486.808 138.423C493.422 143.365 501.419 146.033 509.65 146.033C517.882 146.033 525.878 143.365 532.492 138.423C534.392 137.003 535.127 134.498 534.294 132.277L514.79 80.2695C525.81 79.2071 539.183 75.0658 550.167 70.4141V161.566H522.75C519.805 161.566 517.417 163.955 517.417 166.9C517.417 169.846 519.805 172.233 522.75 172.233H588.25C591.195 172.233 593.583 169.846 593.583 166.9C593.583 163.955 591.196 161.566 588.25 161.566H560.833V70.4141C571.817 75.0657 585.189 79.207 596.209 80.2695L576.706 132.277C575.873 134.498 576.608 137.003 578.508 138.423C585.122 143.365 593.118 146.033 601.35 146.033C609.581 146.033 617.578 143.365 624.192 138.423C626.093 137.003 626.827 134.498 625.994 132.277L606.59 80.5342H614.45C617.396 80.534 619.783 78.1456 619.783 75.2002C619.783 72.2548 617.396 69.8673 614.45 69.8672H601.35C590.342 69.8671 573.437 64.6055 560.833 58.748V49C560.833 46.0545 558.446 43.667 555.5 43.667Z" fill="url(#paint2_linear_519_5)"/>
<defs>
<linearGradient id="paint0_linear_519_5" x1="333.5" y1="0" x2="333.5" y2="223" gradientUnits="userSpaceOnUse">
<stop/>
<stop offset="0.600962" stop-color="#1D2A3A"/>
</linearGradient>
<linearGradient id="paint1_linear_519_5" x1="333.5" y1="0" x2="333.5" y2="223" gradientUnits="userSpaceOnUse">
<stop/>
<stop offset="0.600962" stop-color="#1D2A3A"/>
</linearGradient>
<linearGradient id="paint2_linear_519_5" x1="333.5" y1="0" x2="333.5" y2="223" gradientUnits="userSpaceOnUse">
<stop/>
<stop offset="0.600962" stop-color="#1D2A3A"/>
</linearGradient>
</defs>
</svg>
