<svg width="699" height="223" viewBox="0 0 699 223" fill="none" xmlns="http://www.w3.org/2000/svg">
<path d="M554.799 132.003C550.769 134.205 546.258 135.367 541.65 135.367C537.043 135.367 532.531 134.205 528.501 132.003L541.649 96.9395L554.799 132.003Z" fill="black"/>
<path d="M646.498 132.003C642.469 134.204 637.957 135.367 633.35 135.367C628.742 135.367 624.23 134.205 620.2 132.003L633.35 96.9395L646.498 132.003Z" fill="black"/>
<path fill-rule="evenodd" clip-rule="evenodd" d="M672 0C686.912 0 699 12.0883 699 27V196C699 210.912 686.912 223 672 223H503C488.088 223 476 210.912 476 196V27C476 12.0883 488.088 6.03994e-08 503 0H672ZM587.5 43.667C584.554 43.667 582.167 46.0545 582.167 49V58.748C569.563 64.6055 552.658 69.8671 541.65 69.8672H528.55C525.604 69.8673 523.217 72.2548 523.217 75.2002C523.217 78.1456 525.604 80.534 528.55 80.5342H536.41L517.006 132.277C516.173 134.498 516.907 137.003 518.808 138.423C525.422 143.365 533.419 146.033 541.65 146.033C549.882 146.033 557.878 143.365 564.492 138.423C566.392 137.003 567.127 134.498 566.294 132.277L546.79 80.2695C557.81 79.2071 571.183 75.0658 582.167 70.4141V161.566H554.75C551.805 161.566 549.417 163.955 549.417 166.9C549.417 169.846 551.805 172.233 554.75 172.233H620.25C623.195 172.233 625.583 169.846 625.583 166.9C625.583 163.955 623.196 161.566 620.25 161.566H592.833V70.4141C603.817 75.0657 617.189 79.207 628.209 80.2695L608.706 132.277C607.873 134.498 608.608 137.003 610.508 138.423C617.122 143.365 625.118 146.033 633.35 146.033C641.581 146.033 649.578 143.365 656.192 138.423C658.093 137.003 658.827 134.498 657.994 132.277L638.59 80.5342H646.45C649.396 80.534 651.783 78.1456 651.783 75.2002C651.783 72.2548 649.396 69.8673 646.45 69.8672H633.35C622.342 69.8671 605.437 64.6055 592.833 58.748V49C592.833 46.0545 590.446 43.667 587.5 43.667Z" fill="black"/>
<path d="M103 156.4V140.6H111.2V156.4H103ZM16.2 156.4V140.6H40.8C40.4 141 40.0667 141.333 39.8 141.6C39.5333 141.867 39.2 142.2 38.8 142.6V111.4C38.8 107.4 39.5333 103.667 41 100.2C42.4667 96.7333 44.4667 93.8 47 91.4C50.8667 87.5333 55.4667 85.0667 60.8 84C66.1333 82.9333 71.5333 83.2 77 84.8C82.4667 86.2667 87.2 89.1333 91.2 93.4C96.8 99.2667 101 104.933 103.8 110.4C106.6 115.867 108 121.267 108 126.6C108 131.8 106.8 136.267 104.4 140C102.133 143.733 99.0667 146.867 95.2 149.4C91.4667 151.8 87.2667 153.6 82.6 154.8C78.0667 155.867 73.6 156.4 69.2 156.4H53.8V140.6H69.2C74.2667 140.6 78.4667 139.933 81.8 138.6C85.2667 137.267 87.8667 135.533 89.6 133.4C91.3333 131.267 92.2 129 92.2 126.6C92.2 124.333 91.3333 121.333 89.6 117.6C87.8667 113.733 84.6 109.267 79.8 104.2C77.6667 101.933 75.2 100.467 72.4 99.8C69.6 99 66.8667 98.8667 64.2 99.4C61.6667 99.9333 59.6 101 58 102.6C57.0667 103.533 56.2667 104.733 55.6 106.2C54.9333 107.533 54.6 109.267 54.6 111.4V138C54.6 141.333 53.7333 144.4 52 147.2C50.4 150 48.2 152.267 45.4 154C42.6 155.6 39.3333 156.4 35.6 156.4H16.2ZM13 156.4L0 140.6H16.2L29 156.4H13Z" fill="black"/>
<path d="M107.988 156.4V140.6H161.788V156.4H107.988Z" fill="black"/>
<path d="M181.617 194.8C179.217 194.8 177.217 194 175.617 192.4C174.017 190.8 173.217 188.8 173.217 186.4C173.217 184 174.017 182 175.617 180.4C177.217 178.8 179.217 178 181.617 178C184.017 178 186.017 178.8 187.617 180.4C189.217 182 190.017 184 190.017 186.4C190.017 188.8 189.217 190.8 187.617 192.4C186.017 194 184.017 194.8 181.617 194.8ZM215.217 194.8C212.817 194.8 210.817 194 209.217 192.4C207.617 190.8 206.817 188.8 206.817 186.4C206.817 184 207.617 182 209.217 180.4C210.817 178.8 212.817 178 215.217 178C217.617 178 219.617 178.8 221.217 180.4C222.817 182 223.617 184 223.617 186.4C223.617 188.8 222.817 190.8 221.217 192.4C219.617 194 217.617 194.8 215.217 194.8Z" fill="black"/>
<path d="M158.573 156.4V140.6H220.973C220.707 141 220.373 141.4 219.973 141.8C219.707 142.067 219.44 142.4 219.173 142.8V83.8H234.973V138.2C234.973 141.667 234.107 144.8 232.373 147.6C230.64 150.267 228.373 152.4 225.573 154C222.773 155.6 219.707 156.4 216.373 156.4H158.573Z" fill="black"/>
<path d="M234.941 156.4V140.6H288.741V156.4H234.941Z" fill="black"/>
<path d="M322.047 42.8C319.647 42.8 317.647 42 316.047 40.4C314.447 38.8 313.647 36.8 313.647 34.4C313.647 32 314.447 30 316.047 28.4C317.647 26.8 319.647 26 322.047 26C324.447 26 326.447 26.8 328.047 28.4C329.647 30 330.447 32 330.447 34.4C330.447 36.8 329.647 38.8 328.047 40.4C326.447 42 324.447 42.8 322.047 42.8ZM355.647 42.8C353.247 42.8 351.247 42 349.647 40.4C348.047 38.8 347.247 36.8 347.247 34.4C347.247 32 348.047 30 349.647 28.4C351.247 26.8 353.247 26 355.647 26C358.047 26 360.047 26.8 361.647 28.4C363.247 30 364.047 32 364.047 34.4C364.047 36.8 363.247 38.8 361.647 40.4C360.047 42 358.047 42.8 355.647 42.8Z" fill="black"/>
<path d="M285.527 156.4V140.6H360.927C360.527 141 360.193 141.333 359.927 141.6C359.66 141.867 359.327 142.2 358.927 142.6V92.8C358.927 89.4667 358.127 86.6 356.527 84.2C354.927 81.8 352.86 80 350.327 78.8C348.593 77.2 346.393 76.1333 343.727 75.6C341.193 74.9333 338.527 74.8 335.727 75.2C333.06 75.6 330.593 76.5333 328.327 78C326.06 79.4667 324.127 81.6667 322.527 84.6C320.927 87.5333 319.993 90.7333 319.727 94.2C319.593 97.5333 320.393 100.667 322.127 103.6C324.393 107.2 327.06 109.8 330.127 111.4C333.327 113 337.793 113.867 343.527 114C349.393 114.133 357.193 113.933 366.927 113.4V125.4C361.727 125.8 356.327 126.2 350.727 126.6C345.26 127 339.86 127 334.527 126.6C329.193 126.2 324.26 124.867 319.727 122.6C315.327 120.333 311.593 116.667 308.527 111.6C305.86 107.2 304.327 102.733 303.927 98.2C303.66 93.5333 304.193 89.0667 305.527 84.8C306.86 80.5333 308.793 76.6667 311.327 73.2C313.86 69.7333 316.727 66.9333 319.927 64.8C323.527 62.5333 327.593 60.9333 332.127 60C336.66 59.0667 341.26 58.9333 345.927 59.6C350.727 60.2667 355.193 61.8 359.327 64.2C363.593 66.6 367.127 70 369.927 74.4C371.393 76.9333 372.593 79.8 373.527 83C374.46 86.0667 374.927 89.3333 374.927 92.8V137.6C374.927 140.8 374.127 143.867 372.527 146.8C370.927 149.6 368.66 151.933 365.727 153.8C362.927 155.533 359.66 156.4 355.927 156.4H285.527Z" fill="black"/>
<path d="M384.159 196.4V180.6H402.359C407.959 180.6 412.159 178.667 414.959 174.8C417.893 170.933 419.359 165.733 419.359 159.2V129C419.359 126.333 420.026 124.533 421.359 123.6C422.826 122.533 424.693 121.933 426.959 121.8C429.359 121.667 432.093 121.6 435.159 121.6V159.2C435.159 165.733 433.893 171.8 431.359 177.4C428.826 183.133 425.093 187.733 420.159 191.2C415.359 194.667 409.426 196.4 402.359 196.4H384.159Z" fill="black"/>
</svg>
